<svg width="14" height="10" viewBox="0 0 14 10" fill="none" xmlns="http://www.w3.org/2000/svg">
<path d="M6.99995 6.66667C7.92042 6.66667 8.66662 5.92048 8.66662 5C8.66662 4.07953 7.92042 3.33333 6.99995 3.33333C6.07948 3.33333 5.33328 4.07953 5.33328 5C5.33328 5.92048 6.07948 6.66667 6.99995 6.66667Z" fill="#BAC5CB"/>
<path fill-rule="evenodd" clip-rule="evenodd" d="M6.99995 9.5C9.01951 9.5 10.638 8.40058 11.7212 7.36069C12.2676 6.8362 12.6924 6.31318 12.9807 5.92141C13.1406 5.70423 13.2892 5.48057 13.4318 5.25194C13.5227 5.09625 13.5227 4.90375 13.4318 4.74806C13.2961 4.51604 13.1399 4.29481 12.9807 4.07859C12.6924 3.68682 12.2676 3.1638 11.7212 2.63931C10.638 1.59942 9.01951 0.5 6.99995 0.5C4.98039 0.5 3.3619 1.59942 2.27868 2.63931C1.73234 3.1638 1.30755 3.68682 1.01916 4.07859C0.859286 4.29577 0.71073 4.51943 0.56806 4.74806C0.4779 4.90262 0.478206 5.09829 0.568505 5.2527C0.704344 5.48434 0.860138 5.70539 1.01916 5.92141C1.30755 6.31318 1.73234 6.8362 2.27868 7.36069C3.3619 8.40058 4.98039 9.5 6.99995 9.5ZM9.66662 5C9.66662 6.47276 8.47271 7.66667 6.99995 7.66667C5.52719 7.66667 4.33328 6.47276 4.33328 5C4.33328 3.52724 5.52719 2.33333 6.99995 2.33333C8.47271 2.33333 9.66662 3.52724 9.66662 5ZM6.99995 6.66667C7.92042 6.66667 8.66662 5.92048 8.66662 5C8.66662 4.07953 7.92042 3.33333 6.99995 3.33333C6.07948 3.33333 5.33328 4.07953 5.33328 5C5.33328 5.92048 6.07948 6.66667 6.99995 6.66667Z" fill="#BAC5CB"/>
</svg>
